<svg width="48" height="60" viewBox="0 0 48 60" fill="none" xmlns="http://www.w3.org/2000/svg">
<g clip-path="url(#clip0_77_1952)">
<path d="M23.7202 3.40479C23.455 3.4048 23.2007 3.51016 23.0131 3.69769C22.8256 3.88523 22.7202 4.13957 22.7202 4.40479V17.3618C22.7191 18.0737 22.4716 18.7633 22.0197 19.3135C21.5678 19.8636 20.9394 20.2404 20.2412 20.3798V4.3252C20.2412 4.05998 20.1359 3.80562 19.9483 3.61809C19.7608 3.43055 19.5064 3.3252 19.2412 3.3252C18.976 3.3252 18.7216 3.43055 18.5341 3.61809C18.3466 3.80562 18.2412 4.05998 18.2412 4.3252V20.4404H16.3223V4.3252C16.3223 4.05998 16.2169 3.80562 16.0294 3.61809C15.8418 3.43055 15.5875 3.3252 15.3223 3.3252C15.0571 3.3252 14.8027 3.43055 14.6152 3.61809C14.4276 3.80562 14.3223 4.05998 14.3223 4.3252V20.2595C13.7174 20.0528 13.192 19.6625 12.8193 19.1431C12.4467 18.6237 12.2453 18.0011 12.2432 17.3618V4.3252C12.2432 4.05998 12.1378 3.80562 11.9503 3.61809C11.7627 3.43055 11.5084 3.3252 11.2432 3.3252C10.9779 3.3252 10.7236 3.43055 10.5361 3.61809C10.3485 3.80562 10.2432 4.05998 10.2432 4.3252V17.3618C10.2447 18.7084 10.7804 19.9993 11.7326 20.9514C12.6848 21.9035 13.9757 22.439 15.3223 22.4404H16.4815V44.1548C16.4815 44.42 16.5868 44.6744 16.7743 44.8619C16.9619 45.0494 17.2162 45.1548 17.4815 45.1548C17.7467 45.1548 18.001 45.0494 18.1886 44.8619C18.3761 44.6744 18.4815 44.42 18.4815 44.1548V22.4404H19.6411C20.9876 22.439 22.2786 21.9035 23.2308 20.9514C24.183 19.9993 24.7186 18.7083 24.7202 17.3618V4.40479C24.7202 4.13957 24.6149 3.88521 24.4273 3.69768C24.2398 3.51014 23.9854 3.40479 23.7202 3.40479Z" fill="#898155"/>
<path d="M36.7568 2.84521C34.4348 2.84773 32.2087 3.77122 30.5667 5.41307C28.9248 7.05492 28.0012 9.28104 27.9985 11.603V15.522C28.0016 17.6704 28.7933 19.7429 30.2235 21.3461C31.6537 22.9493 33.6227 23.9715 35.7568 24.2188V44.1548C35.7568 44.4201 35.8622 44.6744 36.0497 44.8619C36.2373 45.0495 36.4916 45.1548 36.7568 45.1548C37.0221 45.1548 37.2764 45.0495 37.4639 44.8619C37.6515 44.6744 37.7568 44.4201 37.7568 44.1548V3.84521C37.7568 3.58 37.6515 3.32566 37.4639 3.13813C37.2764 2.95059 37.022 2.84523 36.7568 2.84521ZM29.9985 15.522V11.603C30.0007 9.98446 30.5827 8.42026 31.6392 7.19401C32.6956 5.96776 34.1564 5.16065 35.7568 4.919V22.2065C34.1564 21.9648 32.6955 21.1576 31.6391 19.9312C30.5827 18.7049 30.0007 17.1406 29.9985 15.522Z" fill="#898155"/>
<path d="M1.775 60.635C1.775 60.375 1.74333 60.1867 1.68 60.07C1.62 59.95 1.50833 59.89 1.345 59.89C1.255 59.89 1.18 59.915 1.12 59.965C1.06333 60.0117 1.01833 60.09 0.985 60.2C0.951667 60.3067 0.928333 60.4483 0.915 60.625C0.901667 60.7983 0.895 61.0117 0.895 61.265C0.895 61.535 0.903333 61.7533 0.92 61.92C0.94 62.0867 0.968333 62.2167 1.005 62.31C1.045 62.4 1.09333 62.4617 1.15 62.495C1.21 62.525 1.27833 62.54 1.355 62.54C1.41833 62.54 1.47667 62.53 1.53 62.51C1.58667 62.4867 1.635 62.4433 1.675 62.38C1.715 62.3133 1.74667 62.2217 1.77 62.105C1.79333 61.985 1.805 61.8283 1.805 61.635H2.525C2.525 61.8283 2.51 62.0117 2.48 62.185C2.45 62.3583 2.39333 62.51 2.31 62.64C2.23 62.77 2.115 62.8717 1.965 62.945C1.81833 63.0183 1.62667 63.055 1.39 63.055C1.12 63.055 0.905 63.0117 0.745 62.925C0.585 62.8383 0.461667 62.7133 0.375 62.55C0.291667 62.3867 0.236667 62.1917 0.21 61.965C0.186667 61.7383 0.175 61.4883 0.175 61.215C0.175 60.945 0.186667 60.6967 0.21 60.47C0.236667 60.24 0.291667 60.0433 0.375 59.88C0.461667 59.7167 0.585 59.59 0.745 59.5C0.905 59.4067 1.12 59.36 1.39 59.36C1.64667 59.36 1.84833 59.4017 1.995 59.485C2.145 59.5683 2.25667 59.675 2.33 59.805C2.40333 59.9317 2.44833 60.07 2.465 60.22C2.485 60.3667 2.495 60.505 2.495 60.635H1.775ZM2.91555 60.31H3.57555V60.67H3.58555C3.65555 60.54 3.74055 60.4367 3.84055 60.36C3.94055 60.28 4.06221 60.24 4.20555 60.24C4.22555 60.24 4.24555 60.2417 4.26555 60.245C4.28888 60.245 4.31055 60.2467 4.33055 60.25V60.91C4.29388 60.9067 4.25721 60.905 4.22055 60.905C4.18721 60.9017 4.15221 60.9 4.11555 60.9C4.05555 60.9 3.99555 60.9083 3.93555 60.925C3.87555 60.9417 3.82055 60.97 3.77055 61.01C3.72055 61.0467 3.68055 61.0967 3.65055 61.16C3.62055 61.22 3.60555 61.295 3.60555 61.385V63H2.91555V60.31ZM5.87559 61.35C5.87225 61.2467 5.86559 61.1567 5.85559 61.08C5.84559 61 5.82725 60.9333 5.80059 60.88C5.77725 60.8233 5.74225 60.7817 5.69559 60.755C5.65225 60.725 5.59559 60.71 5.52559 60.71C5.45559 60.71 5.39725 60.7267 5.35059 60.76C5.30725 60.79 5.27225 60.8317 5.24559 60.885C5.21892 60.935 5.19892 60.9917 5.18559 61.055C5.17559 61.1183 5.17059 61.1817 5.17059 61.245V61.35H5.87559ZM5.17059 61.76V61.975C5.17059 62.055 5.17559 62.1333 5.18559 62.21C5.19892 62.2833 5.21892 62.35 5.24559 62.41C5.27225 62.4667 5.30725 62.5133 5.35059 62.55C5.39392 62.5833 5.44725 62.6 5.51059 62.6C5.62725 62.6 5.71225 62.5583 5.76559 62.475C5.81892 62.3917 5.85559 62.265 5.87559 62.095H6.49559C6.48225 62.4083 6.39892 62.6467 6.24559 62.81C6.09225 62.9733 5.85059 63.055 5.52059 63.055C5.27059 63.055 5.07559 63.0133 4.93559 62.93C4.79559 62.8467 4.69225 62.7367 4.62559 62.6C4.55892 62.4633 4.51725 62.31 4.50059 62.14C4.48725 61.97 4.48059 61.8 4.48059 61.63C4.48059 61.45 4.49225 61.2767 4.51559 61.11C4.54225 60.9433 4.59225 60.795 4.66559 60.665C4.74225 60.535 4.85059 60.4317 4.99059 60.355C5.13059 60.2783 5.31725 60.24 5.55059 60.24C5.75059 60.24 5.91392 60.2733 6.04059 60.34C6.17059 60.4033 6.27225 60.495 6.34559 60.615C6.41892 60.7317 6.46892 60.875 6.49559 61.045C6.52225 61.2117 6.53559 61.3983 6.53559 61.605V61.76H5.17059ZM8.15004 61.655C8.10337 61.6917 8.05337 61.7217 8.00004 61.745C7.94671 61.765 7.89837 61.78 7.85504 61.79C7.71504 61.82 7.61504 61.87 7.55504 61.94C7.49504 62.01 7.46504 62.105 7.46504 62.225C7.46504 62.3283 7.48504 62.4167 7.52504 62.49C7.56504 62.5633 7.63171 62.6 7.72504 62.6C7.77171 62.6 7.82004 62.5933 7.87004 62.58C7.92004 62.5633 7.96504 62.5383 8.00504 62.505C8.04837 62.4717 8.08337 62.4283 8.11004 62.375C8.13671 62.3217 8.15004 62.2583 8.15004 62.185V61.655ZM6.89004 61.135V61.07C6.89004 60.9133 6.91504 60.7833 6.96504 60.68C7.01504 60.5733 7.08171 60.4883 7.16504 60.425C7.25171 60.3583 7.35171 60.3117 7.46504 60.285C7.58171 60.255 7.70504 60.24 7.83504 60.24C8.04171 60.24 8.20837 60.26 8.33504 60.3C8.46171 60.34 8.56004 60.3967 8.63004 60.47C8.70004 60.5433 8.74671 60.6317 8.77004 60.735C8.79671 60.835 8.81004 60.945 8.81004 61.065V62.48C8.81004 62.6067 8.81504 62.705 8.82504 62.775C8.83837 62.845 8.86171 62.92 8.89504 63H8.23504C8.21171 62.9567 8.19337 62.9117 8.18004 62.865C8.17004 62.815 8.16004 62.7667 8.15004 62.72H8.14004C8.06004 62.86 7.96671 62.9517 7.86004 62.995C7.75671 63.035 7.62171 63.055 7.45504 63.055C7.33504 63.055 7.23337 63.035 7.15004 62.995C7.06671 62.9517 7.00004 62.8933 6.95004 62.82C6.90004 62.7467 6.86337 62.665 6.84004 62.575C6.81671 62.4817 6.80504 62.39 6.80504 62.3C6.80504 62.1733 6.81837 62.065 6.84504 61.975C6.87171 61.8817 6.91171 61.8033 6.96504 61.74C7.02171 61.6733 7.09171 61.6183 7.17504 61.575C7.26171 61.5317 7.36504 61.4933 7.48504 61.46L7.87504 61.355C7.97837 61.3283 8.05004 61.2917 8.09004 61.245C8.13004 61.1983 8.15004 61.13 8.15004 61.04C8.15004 60.9367 8.12504 60.8567 8.07504 60.8C8.02837 60.74 7.94671 60.71 7.83004 60.71C7.72337 60.71 7.64337 60.7417 7.59004 60.805C7.53671 60.8683 7.51004 60.9533 7.51004 61.06V61.135H6.89004ZM9.45227 59.54H10.1423V60.31H10.5423V60.78H10.1423V62.235C10.1423 62.3417 10.1573 62.4183 10.1873 62.465C10.2206 62.5083 10.2873 62.53 10.3873 62.53C10.4139 62.53 10.4406 62.53 10.4673 62.53C10.4939 62.5267 10.5189 62.5233 10.5423 62.52V63C10.4656 63 10.3906 63.0017 10.3173 63.005C10.2473 63.0117 10.1723 63.015 10.0923 63.015C9.95893 63.015 9.84893 63.0067 9.76227 62.99C9.67893 62.97 9.61393 62.9333 9.56727 62.88C9.52393 62.8233 9.49393 62.75 9.47727 62.66C9.4606 62.57 9.45227 62.4567 9.45227 62.32V60.78H9.10227V60.31H9.45227V59.54ZM12.0768 61.35C12.0734 61.2467 12.0668 61.1567 12.0568 61.08C12.0468 61 12.0284 60.9333 12.0018 60.88C11.9784 60.8233 11.9434 60.7817 11.8968 60.755C11.8534 60.725 11.7968 60.71 11.7268 60.71C11.6568 60.71 11.5984 60.7267 11.5518 60.76C11.5084 60.79 11.4734 60.8317 11.4468 60.885C11.4201 60.935 11.4001 60.9917 11.3868 61.055C11.3768 61.1183 11.3718 61.1817 11.3718 61.245V61.35H12.0768ZM11.3718 61.76V61.975C11.3718 62.055 11.3768 62.1333 11.3868 62.21C11.4001 62.2833 11.4201 62.35 11.4468 62.41C11.4734 62.4667 11.5084 62.5133 11.5518 62.55C11.5951 62.5833 11.6484 62.6 11.7118 62.6C11.8284 62.6 11.9134 62.5583 11.9668 62.475C12.0201 62.3917 12.0568 62.265 12.0768 62.095H12.6968C12.6834 62.4083 12.6001 62.6467 12.4468 62.81C12.2934 62.9733 12.0518 63.055 11.7218 63.055C11.4718 63.055 11.2768 63.0133 11.1368 62.93C10.9968 62.8467 10.8934 62.7367 10.8268 62.6C10.7601 62.4633 10.7184 62.31 10.7018 62.14C10.6884 61.97 10.6818 61.8 10.6818 61.63C10.6818 61.45 10.6934 61.2767 10.7168 61.11C10.7434 60.9433 10.7934 60.795 10.8668 60.665C10.9434 60.535 11.0518 60.4317 11.1918 60.355C11.3318 60.2783 11.5184 60.24 11.7518 60.24C11.9518 60.24 12.1151 60.2733 12.2418 60.34C12.3718 60.4033 12.4734 60.495 12.5468 60.615C12.6201 60.7317 12.6701 60.875 12.6968 61.045C12.7234 61.2117 12.7368 61.3983 12.7368 61.605V61.76H11.3718ZM14.4762 62.715H14.4662C14.3895 62.8417 14.3029 62.93 14.2062 62.98C14.1129 63.03 13.9962 63.055 13.8562 63.055C13.5729 63.055 13.3645 62.9467 13.2312 62.73C13.0979 62.5133 13.0312 62.155 13.0312 61.655C13.0312 61.155 13.0979 60.795 13.2312 60.575C13.3645 60.3517 13.5729 60.24 13.8562 60.24C13.9862 60.24 14.0962 60.2667 14.1862 60.32C14.2795 60.3733 14.3629 60.4533 14.4362 60.56H14.4462V59.43H15.1362V63H14.4762V62.715ZM13.7212 61.655C13.7212 61.9483 13.7429 62.17 13.7862 62.32C13.8329 62.4667 13.9312 62.54 14.0812 62.54C14.2345 62.54 14.3329 62.4667 14.3762 62.32C14.4229 62.17 14.4462 61.9483 14.4462 61.655C14.4462 61.3617 14.4229 61.1417 14.3762 60.995C14.3329 60.845 14.2345 60.77 14.0812 60.77C13.9312 60.77 13.8329 60.845 13.7862 60.995C13.7429 61.1417 13.7212 61.3617 13.7212 61.655ZM16.7974 59.43H17.4874V60.56H17.4974C17.5707 60.4533 17.6524 60.3733 17.7424 60.32C17.8357 60.2667 17.9474 60.24 18.0774 60.24C18.3607 60.24 18.569 60.3517 18.7024 60.575C18.8357 60.795 18.9024 61.155 18.9024 61.655C18.9024 62.155 18.8357 62.5133 18.7024 62.73C18.569 62.9467 18.3607 63.055 18.0774 63.055C17.9374 63.055 17.819 63.03 17.7224 62.98C17.629 62.93 17.544 62.8417 17.4674 62.715H17.4574V63H16.7974V59.43ZM17.4874 61.655C17.4874 61.9483 17.509 62.17 17.5524 62.32C17.599 62.4667 17.699 62.54 17.8524 62.54C18.0024 62.54 18.099 62.4667 18.1424 62.32C18.189 62.17 18.2124 61.9483 18.2124 61.655C18.2124 61.3617 18.189 61.1417 18.1424 60.995C18.099 60.845 18.0024 60.77 17.8524 60.77C17.699 60.77 17.599 60.845 17.5524 60.995C17.509 61.1417 17.4874 61.3617 17.4874 61.655ZM19.2974 63.35C19.3574 63.36 19.4174 63.365 19.4774 63.365C19.604 63.365 19.694 63.3317 19.7474 63.265C19.804 63.1983 19.8374 63.11 19.8474 63L19.0924 60.31H19.8124L20.2124 62.17H20.2224L20.5724 60.31H21.2624L20.6124 62.82C20.5524 63.0433 20.494 63.2233 20.4374 63.36C20.384 63.5 20.319 63.6067 20.2424 63.68C20.169 63.7567 20.079 63.8067 19.9724 63.83C19.869 63.8533 19.7374 63.865 19.5774 63.865H19.2974V63.35ZM22.7402 59.43H24.7352V60.02H23.4602V60.86H24.6602V61.45H23.4602V63H22.7402V59.43ZM26.192 61.655C26.1454 61.6917 26.0954 61.7217 26.042 61.745C25.9887 61.765 25.9404 61.78 25.897 61.79C25.757 61.82 25.657 61.87 25.597 61.94C25.537 62.01 25.507 62.105 25.507 62.225C25.507 62.3283 25.527 62.4167 25.567 62.49C25.607 62.5633 25.6737 62.6 25.767 62.6C25.8137 62.6 25.862 62.5933 25.912 62.58C25.962 62.5633 26.007 62.5383 26.047 62.505C26.0904 62.4717 26.1254 62.4283 26.152 62.375C26.1787 62.3217 26.192 62.2583 26.192 62.185V61.655ZM24.932 61.135V61.07C24.932 60.9133 24.957 60.7833 25.007 60.68C25.057 60.5733 25.1237 60.4883 25.207 60.425C25.2937 60.3583 25.3937 60.3117 25.507 60.285C25.6237 60.255 25.747 60.24 25.877 60.24C26.0837 60.24 26.2504 60.26 26.377 60.3C26.5037 60.34 26.602 60.3967 26.672 60.47C26.742 60.5433 26.7887 60.6317 26.812 60.735C26.8387 60.835 26.852 60.945 26.852 61.065V62.48C26.852 62.6067 26.857 62.705 26.867 62.775C26.8804 62.845 26.9037 62.92 26.937 63H26.277C26.2537 62.9567 26.2354 62.9117 26.222 62.865C26.212 62.815 26.202 62.7667 26.192 62.72H26.182C26.102 62.86 26.0087 62.9517 25.902 62.995C25.7987 63.035 25.6637 63.055 25.497 63.055C25.377 63.055 25.2754 63.035 25.192 62.995C25.1087 62.9517 25.042 62.8933 24.992 62.82C24.942 62.7467 24.9054 62.665 24.882 62.575C24.8587 62.4817 24.847 62.39 24.847 62.3C24.847 62.1733 24.8604 62.065 24.887 61.975C24.9137 61.8817 24.9537 61.8033 25.007 61.74C25.0637 61.6733 25.1337 61.6183 25.217 61.575C25.3037 61.5317 25.407 61.4933 25.527 61.46L25.917 61.355C26.0204 61.3283 26.092 61.2917 26.132 61.245C26.172 61.1983 26.192 61.13 26.192 61.04C26.192 60.9367 26.167 60.8567 26.117 60.8C26.0704 60.74 25.9887 60.71 25.872 60.71C25.7654 60.71 25.6854 60.7417 25.632 60.805C25.5787 60.8683 25.552 60.9533 25.552 61.06V61.135H24.932ZM27.3443 59.43H28.0343V60.585H28.0443C28.1776 60.355 28.3959 60.24 28.6993 60.24C28.9193 60.24 29.0876 60.3 29.2043 60.42C29.3243 60.54 29.3843 60.735 29.3843 61.005V63H28.6943V61.145C28.6943 61.005 28.6709 60.9083 28.6243 60.855C28.5776 60.7983 28.5026 60.77 28.3993 60.77C28.1559 60.77 28.0343 60.9183 28.0343 61.215V63H27.3443V59.43ZM29.8443 60.31H30.5043V60.585H30.5143C30.6009 60.4617 30.6976 60.3733 30.8043 60.32C30.9143 60.2667 31.0443 60.24 31.1943 60.24C31.3543 60.24 31.4876 60.2767 31.5943 60.35C31.7043 60.4233 31.7776 60.53 31.8143 60.67H31.8243C31.8776 60.5267 31.9626 60.42 32.0793 60.35C32.1993 60.2767 32.3409 60.24 32.5043 60.24C32.7343 60.24 32.9026 60.31 33.0093 60.45C33.1193 60.5867 33.1743 60.785 33.1743 61.045V63H32.4843V61.12C32.4843 61.0067 32.4626 60.92 32.4193 60.86C32.3793 60.8 32.3109 60.77 32.2143 60.77C32.1043 60.77 32.0159 60.8067 31.9493 60.88C31.8859 60.9533 31.8543 61.07 31.8543 61.23V63H31.1643V61.12C31.1643 61.0067 31.1426 60.92 31.0993 60.86C31.0593 60.8 30.9909 60.77 30.8943 60.77C30.7843 60.77 30.6959 60.8067 30.6293 60.88C30.5659 60.9533 30.5343 61.07 30.5343 61.23V63H29.8443V60.31ZM33.6583 59.39H34.3483V59.98H33.6583V59.39ZM33.6583 60.31H34.3483V63H33.6583V60.31ZM36.0557 59.43H37.3857C37.6857 59.43 37.919 59.5067 38.0857 59.66C38.2523 59.81 38.3357 60.04 38.3357 60.35C38.3357 60.59 38.2873 60.7867 38.1907 60.94C38.094 61.09 37.944 61.1867 37.7407 61.23V61.24C37.9207 61.2667 38.0523 61.325 38.1357 61.415C38.219 61.505 38.2707 61.65 38.2907 61.85C38.2973 61.9167 38.3023 61.99 38.3057 62.07C38.309 62.1467 38.3123 62.2333 38.3157 62.33C38.3223 62.52 38.3323 62.665 38.3457 62.765C38.3657 62.865 38.409 62.9333 38.4757 62.97V63H37.6957C37.659 62.95 37.6357 62.8933 37.6257 62.83C37.6157 62.7633 37.609 62.695 37.6057 62.625L37.5857 61.94C37.579 61.8 37.544 61.69 37.4807 61.61C37.4173 61.53 37.3107 61.49 37.1607 61.49H36.7757V63H36.0557V59.43ZM36.7757 60.99H37.0757C37.249 60.99 37.3823 60.95 37.4757 60.87C37.569 60.7867 37.6157 60.6483 37.6157 60.455C37.6157 60.125 37.449 59.96 37.1157 59.96H36.7757V60.99ZM40.069 61.655C40.0223 61.6917 39.9723 61.7217 39.919 61.745C39.8657 61.765 39.8173 61.78 39.774 61.79C39.634 61.82 39.534 61.87 39.474 61.94C39.414 62.01 39.384 62.105 39.384 62.225C39.384 62.3283 39.404 62.4167 39.444 62.49C39.484 62.5633 39.5507 62.6 39.644 62.6C39.6907 62.6 39.739 62.5933 39.789 62.58C39.839 62.5633 39.884 62.5383 39.924 62.505C39.9673 62.4717 40.0023 62.4283 40.029 62.375C40.0557 62.3217 40.069 62.2583 40.069 62.185V61.655ZM38.809 61.135V61.07C38.809 60.9133 38.834 60.7833 38.884 60.68C38.934 60.5733 39.0007 60.4883 39.084 60.425C39.1707 60.3583 39.2707 60.3117 39.384 60.285C39.5007 60.255 39.624 60.24 39.754 60.24C39.9607 60.24 40.1273 60.26 40.254 60.3C40.3807 60.34 40.479 60.3967 40.549 60.47C40.619 60.5433 40.6657 60.6317 40.689 60.735C40.7157 60.835 40.729 60.945 40.729 61.065V62.48C40.729 62.6067 40.734 62.705 40.744 62.775C40.7573 62.845 40.7807 62.92 40.814 63H40.154C40.1307 62.9567 40.1123 62.9117 40.099 62.865C40.089 62.815 40.079 62.7667 40.069 62.72H40.059C39.979 62.86 39.8857 62.9517 39.779 62.995C39.6757 63.035 39.5407 63.055 39.374 63.055C39.254 63.055 39.1523 63.035 39.069 62.995C38.9857 62.9517 38.919 62.8933 38.869 62.82C38.819 62.7467 38.7823 62.665 38.759 62.575C38.7357 62.4817 38.724 62.39 38.724 62.3C38.724 62.1733 38.7373 62.065 38.764 61.975C38.7907 61.8817 38.8307 61.8033 38.884 61.74C38.9407 61.6733 39.0107 61.6183 39.094 61.575C39.1807 61.5317 39.284 61.4933 39.404 61.46L39.794 61.355C39.8973 61.3283 39.969 61.2917 40.009 61.245C40.049 61.1983 40.069 61.13 40.069 61.04C40.069 60.9367 40.044 60.8567 39.994 60.8C39.9473 60.74 39.8657 60.71 39.749 60.71C39.6423 60.71 39.5623 60.7417 39.509 60.805C39.4557 60.8683 39.429 60.9533 39.429 61.06V61.135H38.809ZM41.2212 60.31H41.8812V60.585H41.8912C41.9779 60.4617 42.0745 60.3733 42.1812 60.32C42.2912 60.2667 42.4212 60.24 42.5712 60.24C42.7312 60.24 42.8645 60.2767 42.9712 60.35C43.0812 60.4233 43.1545 60.53 43.1912 60.67H43.2012C43.2545 60.5267 43.3395 60.42 43.4562 60.35C43.5762 60.2767 43.7179 60.24 43.8812 60.24C44.1112 60.24 44.2795 60.31 44.3862 60.45C44.4962 60.5867 44.5512 60.785 44.5512 61.045V63H43.8612V61.12C43.8612 61.0067 43.8395 60.92 43.7962 60.86C43.7562 60.8 43.6879 60.77 43.5912 60.77C43.4812 60.77 43.3929 60.8067 43.3262 60.88C43.2629 60.9533 43.2312 61.07 43.2312 61.23V63H42.5412V61.12C42.5412 61.0067 42.5195 60.92 42.4762 60.86C42.4362 60.8 42.3679 60.77 42.2712 60.77C42.1612 60.77 42.0729 60.8067 42.0062 60.88C41.9429 60.9533 41.9112 61.07 41.9112 61.23V63H41.2212V60.31ZM46.3903 62.715H46.3803C46.3036 62.8417 46.2169 62.93 46.1203 62.98C46.0269 63.03 45.9103 63.055 45.7703 63.055C45.4869 63.055 45.2786 62.9467 45.1453 62.73C45.0119 62.5133 44.9453 62.155 44.9453 61.655C44.9453 61.155 45.0119 60.795 45.1453 60.575C45.2786 60.3517 45.4869 60.24 45.7703 60.24C45.9003 60.24 46.0103 60.2667 46.1003 60.32C46.1936 60.3733 46.2769 60.4533 46.3503 60.56H46.3603V59.43H47.0503V63H46.3903V62.715ZM45.6353 61.655C45.6353 61.9483 45.6569 62.17 45.7003 62.32C45.7469 62.4667 45.8453 62.54 45.9953 62.54C46.1486 62.54 46.2469 62.4667 46.2903 62.32C46.3369 62.17 46.3603 61.9483 46.3603 61.655C46.3603 61.3617 46.3369 61.1417 46.2903 60.995C46.2469 60.845 46.1486 60.77 45.9953 60.77C45.8453 60.77 45.7469 60.845 45.7003 60.995C45.6569 61.1417 45.6353 61.3617 45.6353 61.655ZM48.7653 61.655C48.7186 61.6917 48.6686 61.7217 48.6153 61.745C48.5619 61.765 48.5136 61.78 48.4703 61.79C48.3303 61.82 48.2303 61.87 48.1703 61.94C48.1103 62.01 48.0803 62.105 48.0803 62.225C48.0803 62.3283 48.1003 62.4167 48.1403 62.49C48.1803 62.5633 48.2469 62.6 48.3403 62.6C48.3869 62.6 48.4353 62.5933 48.4853 62.58C48.5353 62.5633 48.5803 62.5383 48.6203 62.505C48.6636 62.4717 48.6986 62.4283 48.7253 62.375C48.7519 62.3217 48.7653 62.2583 48.7653 62.185V61.655ZM47.5053 61.135V61.07C47.5053 60.9133 47.5303 60.7833 47.5803 60.68C47.6303 60.5733 47.6969 60.4883 47.7803 60.425C47.8669 60.3583 47.9669 60.3117 48.0803 60.285C48.1969 60.255 48.3203 60.24 48.4503 60.24C48.6569 60.24 48.8236 60.26 48.9503 60.3C49.0769 60.34 49.1753 60.3967 49.2453 60.47C49.3153 60.5433 49.3619 60.6317 49.3853 60.735C49.4119 60.835 49.4253 60.945 49.4253 61.065V62.48C49.4253 62.6067 49.4303 62.705 49.4403 62.775C49.4536 62.845 49.4769 62.92 49.5103 63H48.8503C48.8269 62.9567 48.8086 62.9117 48.7953 62.865C48.7853 62.815 48.7753 62.7667 48.7653 62.72H48.7553C48.6753 62.86 48.5819 62.9517 48.4753 62.995C48.3719 63.035 48.2369 63.055 48.0703 63.055C47.9503 63.055 47.8486 63.035 47.7653 62.995C47.6819 62.9517 47.6153 62.8933 47.5653 62.82C47.5153 62.7467 47.4786 62.665 47.4553 62.575C47.4319 62.4817 47.4203 62.39 47.4203 62.3C47.4203 62.1733 47.4336 62.065 47.4603 61.975C47.4869 61.8817 47.5269 61.8033 47.5803 61.74C47.6369 61.6733 47.7069 61.6183 47.7903 61.575C47.8769 61.5317 47.9803 61.4933 48.1003 61.46L48.4903 61.355C48.5936 61.3283 48.6653 61.2917 48.7053 61.245C48.7453 61.1983 48.7653 61.13 48.7653 61.04C48.7653 60.9367 48.7403 60.8567 48.6903 60.8C48.6436 60.74 48.5619 60.71 48.4453 60.71C48.3386 60.71 48.2586 60.7417 48.2053 60.805C48.1519 60.8683 48.1253 60.9533 48.1253 61.06V61.135H47.5053ZM49.9175 60.31H50.5775V60.625H50.5875C50.6608 60.4917 50.7558 60.395 50.8725 60.335C50.9892 60.2717 51.1225 60.24 51.2725 60.24C51.4925 60.24 51.6608 60.3 51.7775 60.42C51.8975 60.54 51.9575 60.735 51.9575 61.005V63H51.2675V61.145C51.2675 61.005 51.2442 60.9083 51.1975 60.855C51.1508 60.7983 51.0758 60.77 50.9725 60.77C50.7292 60.77 50.6075 60.9183 50.6075 61.215V63H49.9175V60.31ZM52.4425 59.39H53.1325V59.98H52.4425V59.39ZM52.4425 60.31H53.1325V63H52.4425V60.31Z" fill="#898155"/>
</g>
<defs>
<clipPath id="clip0_77_1952">
<rect width="48" height="60" fill="white"/>
</clipPath>
</defs>
</svg>
